<?xml version="1.0" standalone="no"?>
<!DOCTYPE svg PUBLIC "-//W3C//DTD SVG 20010904//EN"
 "http://www.w3.org/TR/2001/REC-SVG-20010904/DTD/svg10.dtd">
<svg version="1.0" xmlns="http://www.w3.org/2000/svg"
 width="700.000000pt" height="700.000000pt" viewBox="0 0 700.000000 700.000000"
 preserveAspectRatio="xMidYMid meet">
<metadata>
Created by potrace 1.14, written by Peter Selinger 2001-2017
</metadata>
<g transform="translate(0.000000,700.000000) scale(0.100000,-0.100000)"
fill="#000000" stroke="none">
<path d="M0 3500 l0 -3500 3500 0 3500 0 0 3500 0 3500 -3500 0 -3500 0 0
-3500z m6620 0 l0 -3120 -3120 0 -3120 0 0 3120 0 3120 3120 0 3120 0 0 -3120z"/>
<path d="M1212 5788 l-42 -43 572 -572 573 -573 -85 -85 -85 -85 137 -137 137
-137 53 46 c89 75 217 158 333 215 61 29 116 53 123 53 6 0 12 3 12 8 0 4 -83
90 -185 192 l-185 185 -85 -85 -85 -85 -573 573 -572 572 -43 -42z"/>
<path d="M4365 5590 c-196 -31 -391 -134 -562 -297 -72 -69 -84 -85 -98 -136
-49 -172 73 -336 250 -337 80 0 145 32 215 105 65 68 110 95 212 129 104 35
203 42 298 22 109 -23 175 -59 256 -140 109 -110 154 -219 154 -379 0 -104
-30 -207 -84 -290 -41 -63 -941 -961 -1009 -1006 -148 -100 -322 -140 -478
-111 -30 6 -90 28 -134 50 -69 34 -89 40 -145 40 -152 -1 -263 -111 -264 -260
0 -146 85 -235 294 -308 126 -43 210 -57 350 -56 271 2 535 108 783 316 125
104 931 916 996 1003 67 89 144 247 171 350 148 571 -186 1140 -755 1286 -92
23 -350 34 -450 19z"/>
<path d="M3325 4380 c-244 -20 -481 -112 -680 -265 -38 -29 -289 -273 -556
-542 -526 -528 -542 -547 -616 -729 -58 -142 -76 -252 -70 -429 5 -162 21
-238 76 -373 101 -244 340 -474 591 -569 401 -150 812 -57 1142 259 56 54 69
73 83 123 22 74 15 139 -22 207 -33 61 -87 103 -161 124 -100 29 -188 -1 -278
-96 -96 -100 -245 -160 -401 -160 -148 0 -270 48 -368 146 -187 187 -207 490
-46 704 27 36 242 257 478 491 469 466 519 508 668 555 162 52 347 40 505 -31
76 -34 89 -37 151 -33 113 9 203 78 234 182 19 63 19 90 -1 155 -25 87 -83
139 -212 194 -189 81 -317 102 -517 87z"/>
<path d="M3220 3662 c-56 -19 -155 -76 -177 -103 -10 -13 -1 -26 53 -80 l64
-64 63 3 c77 4 157 -17 246 -64 69 -36 70 -36 174 -32 96 3 109 6 178 41 41
20 90 50 109 66 l35 30 -64 64 c-40 42 -69 63 -80 60 -34 -9 -144 17 -224 53
-78 36 -88 38 -202 41 -96 2 -131 -1 -175 -15z"/>
<path d="M4525 2804 c-103 -94 -403 -274 -454 -274 -6 0 -11 -3 -11 -8 0 -4
169 -176 375 -382 l375 -375 -162 -162 -163 -163 85 -85 85 -85 212 212 213
213 180 -180 180 -180 -42 -42 -42 -43 42 -43 42 -42 197 198 198 197 -42 42
-43 42 -43 -42 -42 -42 -180 180 -180 180 213 213 212 212 -85 85 -85 85 -158
-158 c-86 -86 -162 -157 -167 -157 -5 0 -156 146 -335 324 l-325 325 -50 -45z"/>
</g>
</svg>
