<?xml version="1.0" encoding="utf-8"?>
<!-- Generator: Adobe Illustrator 16.0.0, SVG Export Plug-In . SVG Version: 6.00 Build 0)  -->
<!DOCTYPE svg PUBLIC "-//W3C//DTD SVG 1.1//EN" "http://www.w3.org/Graphics/SVG/1.1/DTD/svg11.dtd">
<svg version="1.1" id="Layer_1" xmlns="http://www.w3.org/2000/svg" xmlns:xlink="http://www.w3.org/1999/xlink" x="0px" y="0px"
	 width="400px" height="400px" viewBox="0 0 400 400" enable-background="new 0 0 400 400" xml:space="preserve">
<rect x="0" stroke="#000000" stroke-miterlimit="10" width="400" height="400"/>
<rect x="21.5" y="21.5" fill="#FFCB05" width="357" height="357"/>
<polygon points="327.486,265.859 317.722,256.096 299.165,274.646 146.834,122.314 137.07,132.08 71.644,66.654 66.761,71.537 
	132.187,136.962 122.421,146.727 274.754,299.061 256.202,317.614 265.967,327.38 290.38,302.966 310.886,323.475 306.002,328.355 
	310.886,333.238 333.346,310.779 328.462,305.896 323.579,310.779 303.072,290.273 "/>
<g>
	<path d="M139.576,324.87c-17.165,0-33.401-6.777-45.717-19.083c-12.26-12.107-19.054-28.307-19.109-45.593
		c-0.055-17.43,6.73-33.846,19.107-46.224l45.229-45.229c14.395-14.632,33.287-23.32,52.185-24.072l-0.003-0.814l5.217,0.208
		c14.318,0.573,24.652,5.678,27.129,7.015c2.084,0.681,4.091,1.727,5.837,3.044c4.281,3.197,7.067,7.894,7.825,13.21
		c0.756,5.301-0.594,10.583-3.801,14.873c-3.84,5.116-9.702,8.046-16.09,8.046c-4.123,0-8.061-1.236-11.437-3.584
		c-1.393-0.498-5.897-1.938-11.944-2.149c-0.561-0.021-1.122-0.032-1.693-0.032c-6.431,0-15.159,1.345-25.664,11.838l-45.228,45.212
		c-9.865,10.139-9.886,26.474,0.001,36.364c4.381,4.532,10.547,6.994,17.419,6.994c3.161,0,6.405-0.541,9.382-1.564
		c3.166-1.125,6.498-2.535,9.209-5.09c1.525-2.265,3.545-4.223,5.875-5.688c3.22-2.035,6.935-3.113,10.735-3.113
		c6.918,0,13.257,3.484,16.955,9.321c5.816,9.17,3.236,21.333-5.71,27.394c-6.538,6.414-14.622,11.441-24.034,14.945
		C154.228,323.609,146.956,324.87,139.576,324.87z M206.022,255.753c-1.142,0-2.283-0.033-3.394-0.101
		c-15.415-0.904-26.205-7.361-27.614-8.244c-9.613-5.533-12.981-17.857-7.502-27.537c3.595-6.33,10.345-10.258,17.619-10.258
		c3.501,0,6.966,0.923,10.02,2.668l0.328,0.187l0.295,0.234c0.094,0.069,3.511,2.586,9.452,2.811
		c0.597,0.024,1.194,0.039,1.81,0.039c6.38,0,15.151-1.448,26.443-12.741l45.23-45.229c9.863-10.126,9.884-26.446-0.001-36.333
		c-4.389-4.54-10.564-7.007-17.45-7.007c-3.157,0-6.396,0.54-9.368,1.561c-3.146,1.114-6.461,2.519-9.213,5.124
		c-1.568,2.286-3.543,4.19-5.877,5.666c-3.201,2.039-6.91,3.121-10.71,3.121c-6.907,0-13.25-3.481-16.967-9.312
		c-5.829-9.197-3.248-21.363,5.706-27.413c6.605-6.465,14.692-11.493,24.044-14.947c6.08-2.15,12.229-2.727,17.449-3.011
		l5.236-0.285l0.003,0.411c0.203-0.001,0.405-0.002,0.605-0.002c4.728,0,8.775,0.385,12.375,1.177
		c12.287,2.73,22.959,8.563,31.731,17.338c12.243,12.097,19.029,28.287,19.086,45.567c0.059,17.432-6.72,33.851-19.084,46.231
		l-45.231,45.231C245.38,246.611,225.316,255.753,206.022,255.753z"/>
	<path fill="none" stroke="#FFCB05" stroke-width="10" stroke-miterlimit="10" d="M139.576,324.87
		c-17.165,0-33.401-6.777-45.717-19.083c-12.26-12.107-19.054-28.307-19.109-45.593c-0.055-17.43,6.73-33.846,19.107-46.224
		l45.229-45.229c14.395-14.632,33.287-23.32,52.185-24.072l-0.003-0.814l5.217,0.208c14.318,0.573,24.652,5.678,27.129,7.015
		c2.084,0.681,4.091,1.727,5.837,3.044c4.281,3.197,7.067,7.894,7.825,13.21c0.756,5.301-0.594,10.583-3.801,14.873
		c-3.84,5.116-9.702,8.046-16.09,8.046c-4.123,0-8.061-1.236-11.437-3.584c-1.393-0.498-5.897-1.938-11.944-2.149
		c-0.561-0.021-1.122-0.032-1.693-0.032c-6.431,0-15.159,1.345-25.664,11.838l-45.228,45.212
		c-9.865,10.139-9.886,26.474,0.001,36.364c4.381,4.532,10.547,6.994,17.419,6.994c3.161,0,6.405-0.541,9.382-1.564
		c3.166-1.125,6.498-2.535,9.209-5.09c1.525-2.265,3.545-4.223,5.875-5.688c3.22-2.035,6.935-3.113,10.735-3.113
		c6.918,0,13.257,3.484,16.955,9.321c5.816,9.17,3.236,21.333-5.71,27.394c-6.538,6.414-14.622,11.441-24.034,14.945
		C154.228,323.609,146.956,324.87,139.576,324.87z M206.022,255.753c-1.142,0-2.283-0.033-3.394-0.101
		c-15.415-0.904-26.205-7.361-27.614-8.244c-9.613-5.533-12.981-17.857-7.502-27.537c3.595-6.33,10.345-10.258,17.619-10.258
		c3.501,0,6.966,0.923,10.02,2.668l0.328,0.187l0.295,0.234c0.094,0.069,3.511,2.586,9.452,2.811
		c0.597,0.024,1.194,0.039,1.81,0.039c6.38,0,15.151-1.448,26.443-12.741l45.23-45.229c9.863-10.126,9.884-26.446-0.001-36.333
		c-4.389-4.54-10.564-7.007-17.45-7.007c-3.157,0-6.396,0.54-9.368,1.561c-3.146,1.114-6.461,2.519-9.213,5.124
		c-1.568,2.286-3.543,4.19-5.877,5.666c-3.201,2.039-6.91,3.121-10.71,3.121c-6.907,0-13.25-3.481-16.967-9.312
		c-5.829-9.197-3.248-21.363,5.706-27.413c6.605-6.465,14.692-11.493,24.044-14.947c6.08-2.15,12.229-2.727,17.449-3.011
		l5.236-0.285l0.003,0.411c0.203-0.001,0.405-0.002,0.605-0.002c4.728,0,8.775,0.385,12.375,1.177
		c12.287,2.73,22.959,8.563,31.731,17.338c12.243,12.097,19.029,28.287,19.086,45.567c0.059,17.432-6.72,33.851-19.084,46.231
		l-45.231,45.231C245.38,246.611,225.316,255.753,206.022,255.753z"/>
</g>
</svg>
