<?xml version="1.0" encoding="utf-8"?>
<!-- Generator: Adobe Illustrator 16.0.0, SVG Export Plug-In . SVG Version: 6.00 Build 0)  -->
<!DOCTYPE svg PUBLIC "-//W3C//DTD SVG 1.1//EN" "http://www.w3.org/Graphics/SVG/1.1/DTD/svg11.dtd">
<svg version="1.1" id="Layer_1" xmlns="http://www.w3.org/2000/svg" xmlns:xlink="http://www.w3.org/1999/xlink" x="0px" y="0px"
	 width="400px" height="400px" viewBox="0 0 400 400" enable-background="new 0 0 400 400" xml:space="preserve">
<path fill-rule="evenodd" clip-rule="evenodd" fill="#181616" d="M199.991,5.922C90.114,5.922,1.013,95.012,1.013,204.918
	c0,87.922,57.011,162.504,136.092,188.82c9.949,1.814,13.582-4.318,13.582-9.59c0-4.725-0.173-17.25-0.269-33.857
	c-55.353,12.025-67.032-26.674-67.032-26.674c-9.048-22.977-22.093-29.107-22.093-29.107c-18.067-12.336,1.366-12.098,1.366-12.098
	c19.97,1.408,30.48,20.52,30.48,20.52c17.751,30.396,46.573,21.615,57.912,16.533c1.808-12.859,6.949-21.639,12.634-26.602
	c-44.187-5.035-90.641-22.094-90.641-98.353c0-21.724,7.754-39.487,20.483-53.396c-2.046-5.034-8.875-25.267,1.951-52.663
	c0,0,16.707-5.351,54.721,20.399c15.872-4.414,32.896-6.621,49.817-6.698c16.904,0.077,33.916,2.284,49.818,6.698
	c37.995-25.75,54.672-20.399,54.672-20.399c10.856,27.396,4.021,47.629,1.98,52.663c12.741,13.91,20.447,31.673,20.447,53.396
	c0,76.451-46.525,93.271-90.855,98.185c7.146,6.156,13.505,18.301,13.505,36.863c0,26.602-0.239,48.051-0.239,54.59
	c0,5.32,3.579,11.5,13.684,9.566c79.01-26.363,135.961-100.9,135.961-188.797C398.987,95.012,309.897,5.922,199.991,5.922z"/>
</svg>
