<?xml version="1.0" encoding="utf-8"?>
<!-- Generator: Adobe Illustrator 16.0.0, SVG Export Plug-In . SVG Version: 6.00 Build 0)  -->
<!DOCTYPE svg PUBLIC "-//W3C//DTD SVG 1.1//EN" "http://www.w3.org/Graphics/SVG/1.1/DTD/svg11.dtd">
<svg version="1.1" id="Layer_1" xmlns="http://www.w3.org/2000/svg" xmlns:xlink="http://www.w3.org/1999/xlink" x="0px" y="0px"
	 width="400px" height="400px" viewBox="0 0 400 400" enable-background="new 0 0 400 400" xml:space="preserve">
<rect x="0" stroke="#000000" stroke-miterlimit="10" width="400" height="400"/>
<circle fill="#FFCB05" cx="200.055" cy="200" r="178.5"/>
<polygon points="308.365,255.97 300.067,247.671 284.294,263.438 154.82,133.962 146.52,142.263 90.911,86.654 86.761,90.804 
	142.37,146.413 134.07,154.712 263.545,284.188 247.778,299.959 256.077,308.259 276.827,287.508 294.256,304.939 290.105,309.088 
	294.256,313.238 313.346,294.149 309.195,289.999 305.045,294.149 287.615,276.72 "/>
<g>
	<path d="M148.65,306.876c-14.79,0-28.777-5.838-39.387-16.439c-10.561-10.429-16.414-24.386-16.461-39.279
		c-0.048-15.017,5.798-29.159,16.46-39.821l38.443-38.443c12.181-12.382,28.124-19.811,44.134-20.646l-0.002-0.757l5.215,0.208
		c12.191,0.488,21.052,4.803,23.323,6.019c1.826,0.604,3.585,1.524,5.117,2.681c3.799,2.836,6.271,7.004,6.943,11.722
		c0.671,4.703-0.526,9.39-3.372,13.196c-3.358,4.474-8.692,7.14-14.276,7.14c-3.625,0-7.09-1.078-10.066-3.124
		c-1.223-0.43-4.912-1.579-9.832-1.75c-0.47-0.017-0.937-0.027-1.414-0.027c-5.321,0-12.549,1.119-21.283,9.842l-38.441,38.428
		c-8.093,8.317-8.115,21.729,0.001,29.847c3.59,3.714,8.639,5.726,14.276,5.726c2.604,0,5.277-0.446,7.73-1.289
		c2.98-1.06,5.438-2.185,7.496-4.105c1.349-1.981,3.125-3.695,5.168-4.981c2.856-1.805,6.152-2.761,9.524-2.761
		c6.139,0,11.763,3.092,15.044,8.271c5.148,8.117,2.883,18.878-5.009,24.268c-5.625,5.504-12.567,9.817-20.643,12.823
		C161.276,305.789,155.009,306.876,148.65,306.876z M205.127,248.13c-0.985,0-1.972-0.029-2.931-0.087
		c-13.214-0.774-22.511-6.301-23.811-7.112c-8.518-4.911-11.501-15.837-6.643-24.419c3.189-5.615,9.176-9.1,15.627-9.1
		c3.106,0,6.18,0.818,8.889,2.367l0.327,0.187l0.295,0.234c0.056,0.04,2.811,2.046,7.597,2.228c0.498,0.021,0.995,0.032,1.508,0.032
		c5.278,0,12.543-1.206,21.947-10.609l38.443-38.443c8.091-8.307,8.111-21.706-0.001-29.82c-3.597-3.72-8.654-5.736-14.302-5.736
		c-2.602,0-5.271,0.444-7.719,1.286c-2.566,0.909-5.273,2.053-7.502,4.137c-1.383,1.997-3.117,3.663-5.165,4.958
		c-2.841,1.809-6.133,2.769-9.506,2.769c-6.128,0-11.756-3.088-15.053-8.262c-5.161-8.142-2.894-18.905,5.006-24.286
		c5.683-5.548,12.628-9.861,20.652-12.825c5.269-1.863,10.561-2.36,15.051-2.604l5.23-0.285l0.003,0.389
		c3.978,0.012,7.399,0.345,10.455,1.018c10.586,2.353,19.78,7.378,27.339,14.939c10.546,10.42,16.393,24.37,16.442,39.258
		c0.05,15.018-5.789,29.162-16.44,39.827l-38.445,38.444C238.974,240.277,221.725,248.13,205.127,248.13z"/>
	<path fill="none" stroke="#FFCB05" stroke-width="10" stroke-miterlimit="10" d="M148.65,306.876
		c-14.79,0-28.777-5.838-39.387-16.439c-10.561-10.429-16.414-24.386-16.461-39.279c-0.048-15.017,5.798-29.159,16.46-39.821
		l38.443-38.443c12.181-12.382,28.124-19.811,44.134-20.646l-0.002-0.757l5.215,0.208c12.191,0.488,21.052,4.803,23.323,6.019
		c1.826,0.604,3.585,1.524,5.117,2.681c3.799,2.836,6.271,7.004,6.943,11.722c0.671,4.703-0.526,9.39-3.372,13.196
		c-3.358,4.474-8.692,7.14-14.276,7.14c-3.625,0-7.09-1.078-10.066-3.124c-1.223-0.43-4.912-1.579-9.832-1.75
		c-0.47-0.017-0.937-0.027-1.414-0.027c-5.321,0-12.549,1.119-21.283,9.842l-38.441,38.428c-8.093,8.317-8.115,21.729,0.001,29.847
		c3.59,3.714,8.639,5.726,14.276,5.726c2.604,0,5.277-0.446,7.73-1.289c2.98-1.06,5.438-2.185,7.496-4.105
		c1.349-1.981,3.125-3.695,5.168-4.981c2.856-1.805,6.152-2.761,9.524-2.761c6.139,0,11.763,3.092,15.044,8.271
		c5.148,8.117,2.883,18.878-5.009,24.268c-5.625,5.504-12.567,9.817-20.643,12.823C161.276,305.789,155.009,306.876,148.65,306.876z
		 M205.127,248.13c-0.985,0-1.972-0.029-2.931-0.087c-13.214-0.774-22.511-6.301-23.811-7.112
		c-8.518-4.911-11.501-15.837-6.643-24.419c3.189-5.615,9.176-9.1,15.627-9.1c3.106,0,6.18,0.818,8.889,2.367l0.327,0.187
		l0.295,0.234c0.056,0.04,2.811,2.046,7.597,2.228c0.498,0.021,0.995,0.032,1.508,0.032c5.278,0,12.543-1.206,21.947-10.609
		l38.443-38.443c8.091-8.307,8.111-21.706-0.001-29.82c-3.597-3.72-8.654-5.736-14.302-5.736c-2.602,0-5.271,0.444-7.719,1.286
		c-2.566,0.909-5.273,2.053-7.502,4.137c-1.383,1.997-3.117,3.663-5.165,4.958c-2.841,1.809-6.133,2.769-9.506,2.769
		c-6.128,0-11.756-3.088-15.053-8.262c-5.161-8.142-2.894-18.905,5.006-24.286c5.683-5.548,12.628-9.861,20.652-12.825
		c5.269-1.863,10.561-2.36,15.051-2.604l5.23-0.285l0.003,0.389c3.978,0.012,7.399,0.345,10.455,1.018
		c10.586,2.353,19.78,7.378,27.339,14.939c10.546,10.42,16.393,24.37,16.442,39.258c0.05,15.018-5.789,29.162-16.44,39.827
		l-38.445,38.444C238.974,240.277,221.725,248.13,205.127,248.13z"/>
</g>
</svg>
